<svg xmlns="http://www.w3.org/2000/svg" width="880" height="72">
  <path d="M7 0h73v73l-73-73z" fill="#f6f6f6"/>
  <path d="M87 0l65.8 7.2 7.2 65.8-73-73z" fill="#e9e9e9"/>
  <path d="M167 0l57.88 14.4 15.12 58.6-73-73z" fill="#e0e0e0"/>
  <path d="M247 0l50.68 21.6 22.32 51.4-73-73z" fill="#d6d6d6"/>
  <path d="M327 0l44.2 28.8 28.8 44.2-73-73z" fill="#ccc"/>
  <path d="M488-1l28.8 44.2 44.2 28.8-73-73z" fill="#900"/>
  <path d="M568-1l21.6 51.4 51.4 21.6-73-73z" fill="#a5000b"/>
  <path d="M648-1l14.4 58.6 58.6 14.4-73-73z" fill="#b30019"/>
  <path d="M728-1l7.2 65.8 65.8 7.2-73-73z" fill="#bf0026"/>
  <path d="M808-1v73h73l-73-73z" fill="#c03"/>
</svg>
