<svg xmlns="http://www.w3.org/2000/svg" width="136" height="136">
  <g transform="translate(68, 68) rotate(-45) translate(-68, -68) translate(-27, -27)" stroke="#000" stroke-opacity="0.25" stroke-width="2" fill="none">
    <rect x="0" y="0" width="190" height="190"/>
    <rect x="4" y="4" width="182" height="182"/>
    <rect x="8" y="8" width="174" height="174"/>
    <rect x="12" y="12" width="166" height="166"/>
    <rect x="16" y="16" width="158" height="158"/>
    <rect x="20" y="20" width="150" height="150"/>
    <rect x="24" y="24" width="142" height="142"/>
    <rect x="28" y="28" width="134" height="134"/>
    <rect x="32" y="32" width="126" height="126"/>
    <rect x="36" y="36" width="118" height="118"/>
    <rect x="40" y="40" width="110" height="110"/>
    <rect x="44" y="44" width="102" height="102"/>
    <rect x="48" y="48" width="94" height="94"/>
    <rect x="52" y="52" width="86" height="86"/>
    <rect x="56" y="56" width="78" height="78"/>
    <rect x="60" y="60" width="70" height="70"/>
    <rect x="64" y="64" width="62" height="62"/>
    <rect x="68" y="68" width="54" height="54"/>
    <rect x="72" y="72" width="46" height="46"/>
    <rect x="76" y="76" width="38" height="38"/>
    <rect x="80" y="80" width="30" height="30"/>
    <rect x="84" y="84" width="22" height="22"/>
    <rect x="88" y="88" width="14" height="14"/>
    <rect x="92" y="92" width="6" height="6"/>
  </g>
</svg>
