<svg width="24" height="24" viewBox="0 0 240 240" role="img">
  <path d="M220 240H20c-11 0-20-9-20-20V20C0 9 9 0 20 0h200c11 0 20 9 20 20v200c0 11-9 20-20 20zM20 10c-5 0-10 4-10 10v200c0 5 4 10 10 10h200c5 0 10-4 10-10V20c0-5-4-10-10-10H20zm150 200c-11 0-20-9-20-20s9-20 20-20 20 9 20 20-9 20-20 20zm0-30c-5 0-10 4-10 10s4 10 10 10 10-4 10-10-4-10-10-10zm-50 30c-11 0-20-9-20-20s9-20 20-20 20 9 20 20-9 20-20 20zm0-30c-5 0-10 4-10 10s4 10 10 10 10-4 10-10-4-10-10-10zm-50 30c-11 0-20-9-20-20s9-20 20-20 20 9 20 20-9 20-20 20zm0-30c-5 0-10 4-10 10s4 10 10 10 10-4 10-10-4-10-10-10zm45-30V80h10v70h-10zm0-100V30h10v20h-10zM65 80V30h10v50H65zm0 70v-40h10v40H65zm100 0v-20h10v20h-10zm0-50V30h10v70h-10zM50 110V80h40v30H50zm10-10h20V90H60v10zm90 30v-30h40v30h-40zm-50-50V50h40v30h-40zm10-10h20V60h-20v10zm50 50h20v-10h-20v10z"/>
</svg>
