<svg width="24" height="24" viewBox="0 0 240 240" role="img">
  <path fill-rule="evenodd" d="M140 0h80v240h-80V0zm70 10h-60v30h20v10h-20V70h20v10h-20v20h20v10h-20v20h20v10h-20v20h20v10h-20v20h20v10h-20V230h60V10zM45 230c-14 0-25-11-25-25V60c0-1 35-55 35-55s35 54 35 55v145c0 14-11 25-25 25H45zm-15-25c0 8 7 15 15 15h20c8 0 15-7 15-15v-5H30v5zm0-25v10h50v-10H30zm0-106c0-2 2-4 4-4h2c2 0 4 2 4 4v96H30V74zm20 0c0-2 2-4 4-4h2c2 0 4 2 4 4v96H50V74zm20 0c0-2 2-4 4-4h2c2 0 4 2 4 4v96H70V74zM30.5 60.5S39 58 45 63.5c6-4.5 14-4.5 20 0 6-5.5 14.5-3 14.5-3L69 45H41L30.5 60.5zm24.5-38L47.5 35h15L55 22.5z"/>
</svg>
