<svg width="24" height="24" viewBox="0 0 240 240" role="img">
  <path d="M102.5 240l-1.5-2c-2.5-3.5-61-88-61-128s40.5-64 42.5-65L50 0h140l-32.5 45S200 70 200 110s-58.5 124.5-61 128l-1.5 2h-35zm30-10c9-13 57.5-85.5 57.5-120 0-33-35-56-41.5-60H91.5C85 54 50 77 50 110c0 34.5 48.5 106.5 57.5 120h25zM115 129.5c-11.5-2-20-12.5-20-24.5 0-14 11-25 25-25s25 11 25 25c0 12-8.5 22-20 24.5V230h-10V129.5zm5-39.5c-8 0-15 6.5-15 15s6.5 15 15 15 15-6.5 15-15-6.5-15-15-15zM92.5 40h55L170 10H70l22.5 30z"/>
</svg>
