<svg width="24" height="24" viewBox="0 0 240 240" role="img">
  <path transform="rotate(45 120 120)" d="M115 100H70.5C63 85 47.5 75 30 75 8.5 75-9.5 90-14 110h29l10 10-10 10h-29c4.5 20 22.5 35 44 35 17.5 0 33-10 40.5-25h99.5c7.5 15 22.5 25 40.5 25 21.5 0 39.5-15 44-35h-29l-10-10 10-10h29c-4.5-20-22.5-35-44-35-17.5 0-33 10-40.5 25H125V30h10v-50h-30v50h10v70zm123.5 40c-6.5 9-17 15-28.5 15-16 0-29-10.5-33.5-25H63.5C59 144.5 46 155 30 155c-12 0-22.5-6-28.5-15H20l20-20-20-20H1.5C7.5 91 18 85 30 85c16 0 29 10.5 33.5 25h113c4.5-14.5 17.5-25 33.5-25 12 0 23 6 29 15h-19l-20 20 20 20h19zM115-10h10v30h-10v-30zM99.5 240v-50h-10v-10h25v-40h10v40h25v10H140v50c0 10-7.5 20-20 20-12.5 0-20-10-20.5-20zm11 0c0 7.5 5 10 10 10s10-2.5 10-10v-50h-20v50z"/>
</svg>
