<svg xmlns="http://www.w3.org/2000/svg" width="880" height="72">
  <path fill="#f6f6f6" d="M7 0h73v73l-73-73z"/>
  <path fill="#e6e6e9" d="M87 0l65.8 7.2 7.2 65.8-73-73z"/>
  <path fill="#dadae0" d="M167 0l57.88 14.4 15.12 58.6-73-73z"/>
  <path fill="#cfcfd6" d="M247 0l50.68 21.6 22.32 51.4-73-73z"/>
  <path fill="#c3c3cc" d="M327 0l44.2 28.8 28.8 44.2-73-73z"/>
  <path fill="#990029" d="M488-1l28.8 44.2 44.2 28.8-73-73z"/>
  <path fill="#b3002f" d="M568-1l21.6 51.4 51.4 21.6-73-73z"/>
  <path fill="#cc0036" d="M648-1l14.4 58.6 58.6 14.4-73-73z"/>
  <path fill="#e6003c" d="M728-1l7.2 65.8 65.8 7.2-73-73z"/>
  <path fill="#f04" d="M808-1v73h73l-73-73z"/>
</svg>
